#!OML:ASF H:\Pregnant\Project 1\Capture day 1\Session 1\femalepreg.ASF
:FULLY-SPECIFIED
:DEGREES
1415
root 7.20212 0.745592 26.1357 77.5311 -47.9135 -180.756
lowerback 14.5128 1.82369 3.30884
upperback 3.56048 2.22629 -5.76856
thorax -3.97383 0.894911 -8.43474
lowerneck -20.2395 18.3002 23.711
upperneck 26.6644 23.0888 -12.2177
head 17.4858 10.1367 -3.58815
rclavicle -6.36111e-015 8.57166e-014
rhumerus -43.6229 2.31625 -73.5389
rradius 20.9581
rwrist 10.509
rhand -10.5364 -11.7973
rfingers 7.12502
rthumb 15.467 -41.1986
lclavicle -6.36111e-015 8.57166e-014
lhumerus -62.7365 -51.3849 96.2789
lradius 39.774
lwrist 39.7231
lhand -5.53059 379.558
lfingers 7.12502
lthumb 20.2835 48.5193
rfemur -0.153245 22.9039 7.81748
rtibia 35.9477
rfoot 20.6376 -6.24944
rtoes 16.6743
lfemur 18.1806 355.359 338.196
ltibia 7.15625e-015
lfoot 21.8169 -385.879
ltoes -52.9286
1416
root 7.20068 0.744892 26.1356 77.4733 -47.8858 -180.778
lowerback 14.5984 1.81872 3.34953
upperback 3.57466 2.22537 -5.76294
thorax -4.00369 0.892755 -8.45665
lowerneck -20.2123 18.3014 23.7317
upperneck 26.6385 23.0911 -12.2318
head 17.4734 10.14 -3.59738
rclavicle -5.1684e-014 8.45642e-014
rhumerus -43.6188 2.32025 -73.5477
rradius 20.9518
rwrist 10.5103
rhand -10.5339 -11.7878
rfingers 7.12502
rthumb 15.4695 -41.1888
lclavicle -5.1684e-014 8.45642e-014
lhumerus -62.7359 -51.3791 96.2711
lradius 39.7701
lwrist 39.7242
lhand -5.54223 379.578
lfingers 7.12502
lthumb 20.2724 48.5404
rfemur -0.0525902 22.9234 7.88234
rtibia 35.9012
rfoot 20.6687 -6.23437
rtoes 16.5073
lfemur 18.2634 355.336 338.222
ltibia 3.73715e-014
lfoot 21.922 -385.733
ltoes -52.8645
1417
root 7.19905 0.744214 26.1353 77.4012 -47.8585 -180.799
lowerback 14.6958 1.81253 3.39208
upperback 3.59388 2.22284 -5.75844
thorax -4.03471 0.889605 -8.48111
lowerneck -20.1922 18.302 23.7477
upperneck 26.6156 23.0906 -12.2393
head 17.4612 10.1423 -3.60356
rclavicle 4.45278e-014 -2.50469e-014
rhumerus -43.6125 2.31204 -73.5515
rradius 20.9457
rwrist 10.5234
rhand -10.537 -11.7651
rfingers 7.12502
rthumb 15.4665 -41.1664
lclavicle 4.45278e-014 -2.50469e-014
lhumerus -62.7352 -51.3762 96.262
lradius 39.7678
lwrist 39.7225
lhand -5.55173 379.594
lfingers 7.12502
lthumb 20.2632 48.5573
rfemur 0.0635274 22.9404 7.95009
rtibia 35.8538
rfoot 20.6971 -6.21662
rtoes 16.3287
lfemur 18.3604 355.313 338.249
ltibia 1.35174e-014
lfoot 22.0354 -385.563
ltoes -52.7958
1418
root 7.19732 0.743612 26.1349 77.3226 -47.832 -180.818
lowerback 14.7975 1.80718 3.43782
upperback 3.61671 2.22157 -5.75624
thorax -4.06368 0.887016 -8.51031
lowerneck -20.1819 18.3011 23.761
upperneck 26.5989 23.0856 -12.2426
head 17.4521 10.1426 -3.60838
rclavicle 7.95139e-016 5.87533e-014
rhumerus -43.6052 2.28967 -73.5509
rradius 20.9397
rwrist 10.5443
rhand -10.5461 -11.732
rfingers 7.12502
rthumb 15.4578 -41.1339
lclavicle 7.95139e-016 5.87533e-014
lhumerus -62.7336 -51.3824 96.2523
lradius 39.7656
lwrist 39.7183
lhand -5.54867 379.6
lfingers 7.12502
lthumb 20.2662 48.5629
rfemur 0.18769 22.9549 8.01706
rtibia 35.8044
rfoot 20.7204 -6.21536
rtoes 16.2143
lfemur 18.4645 355.289 338.275
ltibia 8.11041e-014
lfoot 22.1573 -385.374
ltoes -52.7237
1419
root 7.19559 0.74295 26.1344 77.2388 -47.803 -180.835
lowerback 14.9022 1.80097 3.48704
upperback 3.64135 2.21974 -5.75425
thorax -4.09223 0.884109 -8.54182
lowerneck -20.1804 18.2997 23.7714
upperneck 26.5909 23.0781 -12.2413
head 17.4475 10.1417 -3.61114
rclavicle 1.12115e-013 -7.37584e-014
rhumerus -43.5961 2.26465 -73.5509
rradius 20.9336
rwrist 10.5624
rhand -10.5556 -11.6972
rfingers 7.12502
rthumb 15.4485 -41.0999
lclavicle 1.12115e-013 -7.37584e-014
lhumerus -62.7304 -51.3911 96.2397
lradius 39.7631
lwrist 39.7045
lhand -5.5392 379.592
lfingers 7.12502
lthumb 20.2753 48.5537
rfemur 0.316972 22.9651 8.08634
rtibia 35.7527
rfoot 20.7432 -6.22449
rtoes 16.1398
lfemur 18.5705 355.262 338.305
ltibia -1.51076e-014
lfoot 22.2814 -385.177
ltoes -52.6588
1420
root 7.194 0.742275 26.1339 77.1546 -47.7719 -180.848
lowerback 15.0035 1.79462 3.54123
upperback 3.66732 2.21835 -5.75442
thorax -4.11709 0.881503 -8.57849
lowerneck -20.1869 18.2971 23.78
upperneck 26.5882 23.0666 -12.2361
head 17.4453 10.1391 -3.61274
rclavicle 9.46215e-014 -2.25496e-015
rhumerus -43.5864 2.22762 -73.5491
rradius 20.9291
rwrist 10.5841
rhand -10.5647 -11.6643
rfingers 7.12502
rthumb 15.4397 -41.0677
lclavicle 9.46215e-014 -2.25496e-015
lhumerus -62.725 -51.4067 96.2228
lradius 39.7605
lwrist 39.6875
lhand -5.52514 379.577
lfingers 7.12502
lthumb 20.2888 48.5376
rfemur 0.446506 22.9716 8.1563
rtibia 35.6984
rfoot 20.7666 -6.23815
rtoes 16.0834
lfemur 18.6737 355.231 338.338
ltibia -4.85035e-014
lfoot 22.3996 -384.976
ltoes -52.6039
1421
root 7.19268 0.741592 26.1335 77.0744 -47.7394 -180.856
lowerback 15.0974 1.78779 3.59754
upperback 3.69256 2.21676 -5.75568
thorax -4.13854 0.878946 -8.61721
lowerneck -20.2005 18.2951 23.7889
upperneck 26.5914 23.0551 -12.2303
head 17.4475 10.1361 -3.6138
rclavicle 1.51076e-014 6.84813e-014
rhumerus -43.5757 2.18377 -73.5456
rradius 20.9251
rwrist 10.6057
rhand -10.5646 -11.6366
rfingers 7.12502
rthumb 15.4399 -41.0399
lclavicle 1.51076e-014 6.84813e-014
lhumerus -62.7237 -51.4299 96.2092
lradius 39.7593
lwrist 39.6765
lhand -5.51121 379.56
lfingers 7.12502
lthumb 20.3022 48.5192
rfemur 0.570862 22.9745 8.22455
rtibia 35.6414
rfoot 20.7894 -6.25456
rtoes 16.0476
lfemur 18.7685 355.197 338.373
ltibia -1.27222e-014
lfoot 22.5058 -384.774
ltoes -52.5654
1422
root 7.19159 0.740987 26.133 76.9922 -47.7064 -180.86
lowerback 15.1861 1.78176 3.65588
upperback 3.72033 2.21636 -5.75926
thorax -4.15406 0.877152 -8.65952
lowerneck -20.22 18.2921 23.7973
upperneck 26.5935 23.0395 -12.2229
head 17.4492 10.1316 -3.61487
rclavicle 3.97569e-015 -5.43303e-014
rhumerus -43.5622 2.12443 -73.5388
rradius 20.9195
rwrist 10.6304
rhand -10.5561 -11.6215
rfingers 7.12502
rthumb 15.448 -41.0242
lclavicle 3.97569e-015 -5.43303e-014
lhumerus -62.721 -51.4636 96.1938
lradius 39.7596
lwrist 39.6715
lhand -5.50994 379.541
lfingers 7.12502
lthumb 20.3034 48.4995
rfemur 0.696532 22.9725 8.29196
rtibia 35.5817
rfoot 20.8123 -6.26772
rtoes 16.018
lfemur 18.8611 355.159 338.41
ltibia -6.36111e-015
lfoot 22.6097 -384.56
ltoes -52.5288
1423
root 7.19065 0.74055 26.1324 76.9054 -47.6716 -180.859
lowerback 15.272 1.7753 3.71902
upperback 3.75181 2.21579 -5.76626
thorax -4.16366 0.87541 -8.70814
lowerneck -20.2478 18.2891 23.8066
upperneck 26.5963 23.0208 -12.2133
head 17.452 10.126 -3.6154
rclavicle 2.14687e-014 -5.12678e-014
rhumerus -43.5441 2.04709 -73.53
rradius 20.9119
rwrist 10.6639
rhand -10.5377 -11.6154
rfingers 7.12502
rthumb 15.4658 -41.0168
lclavicle 2.14687e-014 -5.12678e-014
lhumerus -62.7176 -51.5088 96.1741
lradius 39.7637
lwrist 39.6759
lhand -5.51771 379.525
lfingers 7.12502
lthumb 20.2959 48.4846
rfemur 0.828376 22.971 8.36324
rtibia 35.5188
rfoot 20.8321 -6.29004
rtoes 16.0198
lfemur 18.956 355.117 338.451
ltibia -1.51076e-014
lfoot 22.7099 -384.332
ltoes -52.4991
1424
root 7.18987 0.740332 26.1317 76.8153 -47.6364 -180.855
lowerback 15.3546 1.76804 3.77877
upperback 3.78531 2.21387 -5.77146
thorax -4.1698 0.873226 -8.75229
lowerneck -20.2762 18.2871 23.816
upperneck 26.5978 23.0041 -12.2062
head 17.4553 10.1208 -3.61638
rclavicle 7.31528e-014 1.09704e-014
rhumerus -43.5223 1.96777 -73.5165
rradius 20.9044
rwrist 10.6995
rhand -10.5068 -11.623
rfingers 7.12502
rthumb 15.4955 -41.022
lclavicle 7.31528e-014 1.09704e-014
lhumerus -62.7112 -51.5521 96.1543
lradius 39.7687
lwrist 39.6831
lhand -5.5251 379.514
lfingers 7.12502
lthumb 20.2888 48.4743
rfemur 0.964971 22.9674 8.43547
rtibia 35.4529
rfoot 20.8516 -6.30595
rtoes 16.0074
lfemur 19.0529 355.072 338.493
ltibia -1.51076e-014
lfoot 22.8084 -384.084
ltoes -52.464
